<?xml version="1.0" standalone="no"?>
<!DOCTYPE svg PUBLIC "-//W3C//DTD SVG 20010904//EN"
 "http://www.w3.org/TR/2001/REC-SVG-20010904/DTD/svg10.dtd">
<svg version="1.0" xmlns="http://www.w3.org/2000/svg"
 width="827.000000pt" height="732.000000pt" viewBox="0 0 827.000000 732.000000"
 preserveAspectRatio="xMidYMid meet">

<g transform="translate(0.000000,732.000000) scale(0.100000,-0.100000)"
fill="#000000" stroke="none">
<path d="M2066 7309 c-857 -81 -1640 -697 -1921 -1509 -98 -285 -136 -516
-135 -844 0 -282 30 -524 101 -816 178 -725 524 -1274 1099 -1740 334 -270
808 -596 1340 -920 383 -234 562 -352 700 -463 200 -160 350 -343 450 -547
l42 -85 -6 60 c-3 33 -17 93 -30 134 -82 239 -278 457 -681 757 -259 192 -570
484 -717 674 -354 458 -520 1000 -468 1531 34 342 129 668 390 1339 159 408
179 467 214 622 68 308 59 559 -31 828 -19 58 -38 109 -42 113 -4 4 -11 -59
-15 -140 -14 -325 -76 -596 -200 -886 -26 -60 -116 -247 -200 -415 -171 -342
-234 -481 -311 -687 -133 -357 -195 -662 -195 -963 1 -323 66 -608 206 -901
62 -130 52 -128 -56 14 -337 447 -519 998 -497 1505 20 432 200 1029 474 1570
153 301 179 392 170 595 -3 66 -12 143 -20 170 l-14 50 -12 -60 c-35 -179
-119 -368 -316 -715 -158 -278 -330 -626 -394 -794 -116 -307 -164 -547 -165
-826 -1 -204 11 -314 54 -495 74 -312 208 -599 397 -855 l56 -75 -68 65 c-211
204 -444 535 -580 823 -189 403 -275 791 -275 1243 0 433 62 737 215 1052 239
494 626 838 1104 981 688 205 1296 95 1826 -332 160 -129 364 -353 543 -597
65 -88 79 -89 151 -8 113 128 369 377 468 456 255 201 515 344 798 437 480
159 955 131 1390 -80 431 -210 700 -537 814 -993 44 -175 56 -286 55 -542 0
-239 -8 -345 -40 -540 -84 -510 -316 -919 -814 -1434 -69 -71 -115 -124 -103
-118 32 17 115 15 141 -4 22 -15 25 -13 82 36 199 172 462 497 626 772 413
695 582 1543 419 2103 -139 478 -406 862 -766 1101 -240 160 -617 295 -934
334 -142 18 -410 13 -561 -9 -617 -92 -1234 -429 -1588 -869 l-58 -72 -34 56
c-283 470 -836 793 -1529 893 -167 24 -412 33 -549 20z"/>
<path d="M2986 6363 c11 -220 -25 -532 -95 -825 -45 -189 -97 -365 -226 -758
-258 -789 -322 -1077 -332 -1495 -4 -174 -2 -249 12 -355 61 -481 283 -949
639 -1343 102 -112 312 -300 383 -341 7 -3 -6 31 -27 76 -132 283 -146 618
-34 839 37 74 118 155 187 188 40 20 186 61 404 116 465 116 609 168 730 264
74 58 105 116 106 194 1 51 -12 98 -71 272 -39 116 -74 229 -78 251 -8 55 9
105 62 181 25 34 47 75 50 91 8 39 -28 80 -108 122 -130 68 -136 90 -43 182
37 37 65 74 65 85 0 38 -36 69 -102 88 -91 25 -127 44 -143 76 -29 56 -16 90
80 209 75 92 98 143 92 198 -9 80 -65 120 -337 240 -351 155 -405 224 -435
549 -15 163 -38 251 -96 366 -90 177 -253 364 -442 506 -63 47 -227 151 -239
151 -4 0 -5 -57 -2 -127z"/>
<path d="M5706 3243 c-45 -47 -109 -177 -130 -263 -8 -36 -20 -112 -26 -170
-6 -58 -14 -106 -18 -108 -4 -1 -52 -29 -107 -62 -54 -32 -100 -58 -101 -57
-2 1 2 53 7 114 11 122 1 218 -26 259 -23 35 -64 32 -102 -8 -71 -75 -116
-214 -132 -412 -6 -65 -12 -120 -13 -121 -13 -11 -185 -92 -278 -130 -369
-150 -600 -313 -739 -519 -64 -95 -92 -152 -135 -275 -67 -191 -77 -265 -83
-563 -8 -431 25 -617 149 -838 l43 -75 7 76 c20 215 152 393 497 672 224 181
367 268 806 489 121 61 254 130 295 153 41 23 140 77 220 120 219 117 326 192
455 319 133 131 200 219 332 439 53 89 132 216 175 282 130 198 159 274 118
315 -30 30 -83 23 -157 -22 -81 -48 -268 -232 -354 -348 -40 -55 -75 -98 -77
-95 -2 2 17 108 42 237 99 509 99 607 1 608 -23 0 -42 -13 -90 -63 -90 -94
-142 -206 -195 -416 l-11 -43 -22 20 c-29 27 -107 52 -161 52 l-43 0 5 159 c5
190 -1 241 -34 281 -36 42 -72 40 -118 -7z m348 -630 c-4 -16 -36 -116 -71
-223 -66 -203 -95 -261 -168 -345 l-43 -50 18 80 c21 88 40 264 40 361 0 59 2
64 33 88 25 19 182 112 195 115 1 1 -1 -11 -4 -26z m-588 -414 c-29 -124 -91
-232 -200 -346 l-65 -68 29 70 c27 64 49 149 65 247 5 33 17 45 92 102 48 36
89 64 91 62 1 -2 -4 -32 -12 -67z"/>
</g>
</svg>
